PathFileType	4	(X/Y/Z)	P:\Projects\LMB_grand_challenge_database\project_only\opensim\experimental_data\SixthCompetition/DM_ngait_og3_new.trc
DataRate	CameraRate	NumFrames	NumMarkers	Units	OrigDataRate	OrigDataStartFrame	OrigNumFrames
120	120	4	68	mm	120	0	302
Frame#	Time	Sternum			Neck			R_Shoulder			L_Shoulder			Xiphoid			Thoracic			R_Asis			L_Asis			R_Psis			L_Psis			Lumbar			R_Elbow			R_ElbowMedial			R_ShoulderAnterior			R_ShoulderPosterior			R_Wrist			R_Radius			R_Ulna			L_Elbow			L_ElbowMedial			L_ShoulderAnterior			L_ShoulderPosterior			L_Wrist			L_Ulna			L_Radius			L_Thigh_Superior			L_Thigh_Inferior			L_Thigh_Lateral			L_Knee_Lateral			L_Knee_Medial			L_Patella			L_Shank_Superior			L_Shank_Inferior			L_Shank_Lateral			L_Ankle_Lateral			L_Ankle_Medial			R_Thigh_Superior			R_Thigh_Inferior			R_Thigh_Lateral			R_Knee_Lateral			R_Knee_Medial			R_Patella			R_Shank_Superior			R_Shank_Inferior			R_Shank_Lateral			R_Ankle_Lateral			RankleMedial			R_Heel			R_Toe			R_Midfoot_Medial			R_Midfoot_Lateral			R_Hindfoot			R_Midfoot_Superior			R_ToeMedial			R_ToeLateral			L_Heel			L_Toe			L_Midfoot_Medial			L_Midfoot_Lateral			L_Hindfoot			L_Midfoot_Superior			L_ToeMedial			L_ToeLateral			Oglobal			Sacral			Xglobal			Yglobal			Zglobal			
		X1	Y1	Z1	X2	Y2	Z2	X3	Y3	Z3	X4	Y4	Z4	X5	Y5	Z5	X6	Y6	Z6	X7	Y7	Z7	X8	Y8	Z8	X9	Y9	Z9	X10	Y10	Z10	X11	Y11	Z11	X12	Y12	Z12	X13	Y13	Z13	X14	Y14	Z14	X15	Y15	Z15	X16	Y16	Z16	X17	Y17	Z17	X18	Y18	Z18	X19	Y19	Z19	X20	Y20	Z20	X21	Y21	Z21	X22	Y22	Z22	X23	Y23	Z23	X24	Y24	Z24	X25	Y25	Z25	X26	Y26	Z26	X27	Y27	Z27	X28	Y28	Z28	X29	Y29	Z29	X30	Y30	Z30	X31	Y31	Z31	X32	Y32	Z32	X33	Y33	Z33	X34	Y34	Z34	X35	Y35	Z35	X36	Y36	Z36	X37	Y37	Z37	X38	Y38	Z38	X39	Y39	Z39	X40	Y40	Z40	X41	Y41	Z41	X42	Y42	Z42	X43	Y43	Z43	X44	Y44	Z44	X45	Y45	Z45	X46	Y46	Z46	X47	Y47	Z47	X48	Y48	Z48	X49	Y49	Z49	X50	Y50	Z50	X51	Y51	Z51	X52	Y52	Z52	X53	Y53	Z53	X54	Y54	Z54	X55	Y55	Z55	X56	Y56	Z56	X57	Y57	Z57	X58	Y58	Z58	X59	Y59	Z59	X60	Y60	Z60	X61	Y61	Z61	X62	Y62	Z62	X63	Y63	Z63	X64	Y64	Z64	X65	Y65	Z65	X66	Y66	Z66	X67	Y67	Z67	X68	Y68	Z68	

1	2.2	-995.51	1462.55	158.829	-829.12	1384.67	153.476	-893.35	1419.46	327.643	-930.4450000000001	1423.29	-16.9537	-812.943	1215.98	164.136	-1083	1275.78	154.818	-909.426	981.593	298.256	-877.8920000000001	994.971	22.1182	-1098.95	1026.65	170.621	-1090.71	1026.5	92.61539999999999	-1093.97	1076.14	135.663	-943.909	1108.72	433.307	-0	0	0	-0	0	0	-0	0	0	-860.023	839.691	417.339	-860.962	849.703	373.272	-906.956	845.127	430.406	-933.273	1091.8	-125.455	-0	0	0	-0	0	0	-0	0	0	-834.7859999999999	838.4	-126.628	-878.801	850.95	-146.649	-845.812	854.301	-80.54940000000001	-935.856	813.278	-11.9545	-889.28	596.866	45.0946	-849.546	689.427	61.0883	-0	0	0	-0	0	0	-850.927	510.032	110.982	-919.918	443.661	37.669	-979.547	179.65	37.1723	-923.7190000000001	298.768	111.709	-0	0	0	-0	0	0	-964.12	799.9829999999999	323.893	-889.924	596.701	304.177	-858.627	736.0890000000001	323.085	-0	0	0	-0	0	0	-790.298	504.641	256.368	-973.447	464.228	306.16	-1089.91	295.01	281.863	-952.989	352.77	233.318	-0	0	0	-0	0	0	-1215.7	238.767	208.252	-996.168	40.7502	254.333	-1055.19	75.5249	188.125	-1091.7	76.92489999999999	299.56	-1174.31	146.397	269.827	-1057.8	178.569	247.09	-1019.85	54.3745	205.1	-1046.58	54.3877	292.386	-1070.73	62.1464	88.1845	-771.888	53.1615	93.3927	-852.811	34.1856	141.996	-861.918	33.8433	27.8777	-968.972	28.3281	33.7795	-905.869	119.99	86.97880000000001	-811.3	35.4685	134.578	-807.278	36.6298	40.0538	-0	0	0	-1094.83	1026.57	131.618	-200	0	0	-0	0	200	-0	200	0	
2	2.208333	-988.011	1463.11	158.836	-821.349	1385.06	154.206	-886.61	1419.93	328.088	-921.563	1423.82	-16.2192	-805.787	1216.08	164.867	-1075.54	1276.34	154.532	-903.171	979.276	298.258	-870.723	995.49	22.4144	-1091.29	1028.53	170.154	-1083.65	1025.8	92.5528	-1086.65	1076.72	136.185	-939.086	1109.45	433.97	-0	0	0	-0	0	0	-0	0	0	-856.5309999999999	840.384	420.274	-856.578	850.116	375.902	-903.408	845.761	431.925	-918.824	1092.62	-125.093	-0	0	0	-0	0	0	-0	0	0	-814.159	841.672	-123.115	-858.934	853.905	-145.877	-826.718	857.202	-77.209	-929.373	813.199	-11.0057	-885.927	596.744	45.7257	-845.35	689.539	62.3774	-0	0	0	-0	0	0	-849.485	509.183	111.097	-918.539	443.534	37.8211	-979.194	179.749	37.4129	-923.126	298.648	111.879	-0	0	0	-0	0	0	-955.346	800.913	324.411	-877.224	599.311	304.37	-848.5170000000001	739.114	323.369	-0	0	0	-0	0	0	-775.9400000000001	509.316	256.485	-957.501	463.756	306.988	-1068.44	290.425	283.327	-933.604	353.113	234.058	-0	0	0	-0	0	0	-1192.68	228.71	210.518	-964.718	40.8589	255.131	-1025.41	72.551	189.247	-1061.12	72.44110000000001	300.95	-1146.93	138.317	271.769	-1032.28	175.502	248.142	-988.746	52.9645	205.799	-1015.01	51.8997	293.257	-1073.23	64.4913	85.9431	-771.826	53.0631	93.4434	-856.9400000000001	33.5802	144.529	-863.782	31.7066	30.2671	-969.145	28.4102	33.8567	-905.936	119.942	87.232	-811.101	35.5924	134.692	-807.505	36.871	39.9841	-0	0	0	-1087.47	1027.17	131.353	-200	0	0	-0	0	200	-0	200	0	
3	2.216667	-980.436	1463.47	158.911	-813.889	1385.12	155.072	-880.221	1420.07	328.763	-912.922	1424.59	-15.7972	-798.59	1216.32	165.29	-1068.23	1276.82	154.225	-896.232	979.508	298.539	-863.427	995.789	22.5619	-1084.12	1028.96	170.188	-1076.42	1026.15	92.4782	-1079.45	1077.12	136.188	-934.412	1110.11	434.699	-0	0	0	-0	0	0	-0	0	0	-852.968	840.544	423.02	-852.083	850.599	378.571	-899.859	846.377	434.072	-904.369	1093.49	-124.531	-0	0	0	-0	0	0	-0	0	0	-793.574	845.051	-119.667	-838.246	856.079	-143.304	-807.1559999999999	860.795	-74.0377	-922.836	813.331	-10.4734	-882.706	596.439	46.5765	-840.806	689.258	64.2846	-0	0	0	-0	0	0	-848.016	508.552	111.54	-917.027	443.356	38.1615	-978.893	179.974	37.5577	-922.427	298.527	112.271	-0	0	0	-0	0	0	-946.851	801.7859999999999	325.024	-864.92	601.65	304.525	-838.675	742.061	323.434	-0	0	0	-0	0	0	-761.809	513.9829999999999	256.353	-941.05	462.793	307.813	-1046.49	285.458	284.696	-913.965	353.403	234.516	-0	0	0	-0	0	0	-1169.13	218.357	212.645	-932.556	40.7598	255.897	-995.237	69.7037	190.715	-1030.35	68.16889999999999	302.595	-1119.11	130.126	273.788	-1006.25	172.304	249.549	-957.886	52.2008	206.678	-982.979	49.4813	294.268	-1073.69	64.96259999999999	85.872	-771.847	52.9878	93.48180000000001	-857.653	33.3301	144.992	-864.23	31.405	30.7152	-969.0359999999999	28.4273	33.8802	-905.953	119.909	87.5247	-811.139	35.2117	135.498	-807.378	36.757	40.1223	-0	0	0	-1080.27	1027.56	131.333	-200	0	0	-0	0	200	-0	200	0	
4	2.225	-972.8049999999999	1463.83	158.977	-806.623	1385.24	155.852	-873.437	1420.09	329.278	-904.357	1424.97	-15.0812	-791.587	1216.19	165.828	-1060.94	1277.32	154.186	-889.3150000000001	979.895	298.895	-856.1559999999999	995.91	22.8891	-1077.02	1029.37	170.281	-1069.22	1026.52	92.4659	-1072.26	1077.5	136.208	-929.6079999999999	1110.59	435.455	-0	0	0	-0	0	0	-0	0	0	-848.961	840.425	425.404	-848.706	851.587	380.894	-896.163	846.6849999999999	435.904	-890.054	1094.04	-123.86	-0	0	0	-0	0	0	-0	0	0	-773.304	848.525	-116.017	-816.976	857.818	-138.909	-788.424	863.829	-70.1473	-916.327	813.36	-9.807740000000001	-879.218	595.994	47.254	-836.948	688.721	66.4812	-0	0	0	-0	0	0	-845.731	508.39	112.505	-915.103	443.19	38.5198	-978.429	180.055	37.8167	-921.478	298.894	112.926	-0	0	0	-0	0	0	-937.904	801.967	325.54	-853.1420000000001	603.946	304.88	-829.139	744.775	323.476	-0	0	0	-0	0	0	-748.322	518.417	256.222	-925.228	461.272	308.58	-1023.94	280.092	286.262	-894.671	352.92	234.957	-0	0	0	-0	0	0	-1144.7	207.586	214.772	-900.203	40.827	257.078	-964.774	66.2328	193.255	-998.895	64.6618	305.441	-1091.11	122.553	276.451	-979.869	169.067	250.834	-926.526	50.6535	208.218	-951.043	47.5011	295.934	-1073.06	64.1174	86.1866	-771.812	52.9523	93.55	-856.755	33.3988	144.792	-863.4930000000001	32.1349	30.516	-969.016	28.446	33.9416	-906.218	119.852	87.9229	-811.168	35.1327	135.596	-807.353	36.7885	40.1554	-0	0	0	-1073.12	1027.94	131.374	-200	0	0	-0	0	200	-0	200	0	
